<?xml version="1.0" encoding="utf-8"?>
<!-- Generator: Adobe Illustrator 25.0.1, SVG Export Plug-In . SVG Version: 6.00 Build 0)  -->
<svg version="1.1" id="Layer_1" xmlns="http://www.w3.org/2000/svg" xmlns:xlink="http://www.w3.org/1999/xlink" x="0px" y="0px"
	 viewBox="0 0 25 25" style="enable-background:new 0 0 25 25;" xml:space="preserve">
<style type="text/css">
	.st0{fill-rule:evenodd;clip-rule:evenodd;fill:#3F3F3F;}
	.st1{fill:#FFFFFF;}
	.st2{fill-rule:evenodd;clip-rule:evenodd;fill:#FFFFFF;}
	.st3{fill-rule:evenodd;clip-rule:evenodd;fill:#8F8F8F;}
	.st4{fill:#3F3F3F;stroke:#3F3F3F;stroke-width:0.5;}
	.st5{fill:#8F8F8F;stroke:#8F8F8F;stroke-width:0.5;}
	.st6{fill:none;stroke:#3F3F3F;stroke-width:2;stroke-linecap:round;stroke-linejoin:round;}
	.st7{fill:none;stroke:#8F8F8F;stroke-width:2;stroke-linecap:round;stroke-linejoin:round;}
	.st8{fill:#C82300;stroke:#C82300;stroke-width:2;stroke-linecap:round;stroke-linejoin:round;}
	.st9{fill:#3F3F3F;}
	.st10{fill:none;stroke:#FFFFFF;stroke-width:2.5;stroke-linecap:round;stroke-linejoin:round;stroke-miterlimit:10;}
	.st11{fill:none;stroke:#3F3F3F;stroke-width:2.5;stroke-linecap:round;stroke-linejoin:round;stroke-miterlimit:10;}
</style>
<g>
	<path class="st2" d="M12.45,25c0.03,0,0.07,0,0.1,0H12.45z"/>
	<path class="st2" d="M15.03,0.26C8.27-1.14,1.65,3.21,0.26,9.97s2.95,13.37,9.72,14.77c0.16,0.03,0.32,0.05,0.48,0.07v-8.5H7.6
		v-3.39h2.85V9.84c0.22-3.33,3.52-3.74,3.52-3.74h0.44h0.82h2.16v3.14h-2.16c-1.14,0-1.27,0.86-1.27,0.86v2.82h2.85h0.57l-0.57,3.39
		h-2.85v8.59c5.2-0.62,9.65-4.47,10.77-9.88C26.14,8.27,21.79,1.65,15.03,0.26z"/>
</g>
</svg>
