<?xml version="1.0" encoding="utf-8"?>
<!-- Generator: Adobe Illustrator 25.0.1, SVG Export Plug-In . SVG Version: 6.00 Build 0)  -->
<svg version="1.1" id="Layer_1" xmlns="http://www.w3.org/2000/svg" xmlns:xlink="http://www.w3.org/1999/xlink" x="0px" y="0px"
	 viewBox="0 0 25 25" style="enable-background:new 0 0 25 25;" xml:space="preserve">
<style type="text/css">
	.st0{fill-rule:evenodd;clip-rule:evenodd;fill:#606060;}
	.st1{fill:#606060;}
	.st2{fill-rule:evenodd;clip-rule:evenodd;fill:#3F3F3F;}
	.st3{fill:#FFFFFF;}
	.st4{fill-rule:evenodd;clip-rule:evenodd;fill:#FFFFFF;}
	.st5{fill-rule:evenodd;clip-rule:evenodd;fill:#8F8F8F;}
	.st6{fill:#3F3F3F;stroke:#3F3F3F;stroke-width:0.5;}
	.st7{fill:#8F8F8F;stroke:#8F8F8F;stroke-width:0.5;}
	.st8{fill:none;stroke:#3F3F3F;stroke-width:2;stroke-linecap:round;stroke-linejoin:round;}
	.st9{fill:none;stroke:#8F8F8F;stroke-width:2;stroke-linecap:round;stroke-linejoin:round;}
	.st10{fill:#C82300;stroke:#C82300;stroke-width:2;stroke-linecap:round;stroke-linejoin:round;}
	.st11{fill:#3F3F3F;}
	.st12{fill:none;stroke:#FFFFFF;stroke-width:2.5;stroke-linecap:round;stroke-linejoin:round;stroke-miterlimit:10;}
	.st13{fill:none;stroke:#3F3F3F;stroke-width:2.5;stroke-linecap:round;stroke-linejoin:round;stroke-miterlimit:10;}
</style>
<g>
	<path class="st6" d="M14.01,8.8c-0.37-0.17-0.81,0-0.97,0.37c-0.17,0.37,0,0.81,0.37,0.97c0.32,0.14,0.61,0.34,0.86,0.59
		c1.14,1.14,1.14,2.98,0,4.12l-4.32,4.32c-0.55,0.55-1.28,0.85-2.06,0.85s-1.51-0.3-2.06-0.85c-1.14-1.14-1.14-2.98,0-4.12
		l1.79-1.79c0.29-0.29,0.29-0.75,0-1.04c-0.29-0.29-0.75-0.29-1.04,0l-1.79,1.79c-1.71,1.71-1.71,4.49,0,6.2
		c0.83,0.83,1.93,1.28,3.1,1.28c1.17,0,2.28-0.45,3.1-1.28l4.32-4.32c1.71-1.71,1.71-4.49,0-6.2C14.93,9.32,14.49,9.02,14.01,8.8z"
		/>
	<path class="st6" d="M20.22,4.78c-1.71-1.71-4.49-1.71-6.2,0L9.69,9.1c-1.71,1.71-1.71,4.49,0,6.2c0.35,0.35,0.76,0.64,1.21,0.85
		c0.1,0.05,0.21,0.07,0.32,0.07c0.28,0,0.54-0.15,0.67-0.42c0.18-0.37,0.02-0.81-0.35-0.98c-0.3-0.14-0.57-0.33-0.8-0.56
		c-1.14-1.14-1.14-2.98,0-4.12l4.32-4.32c1.14-1.13,2.98-1.14,4.12,0c1.14,1.14,1.14,2.98,0,4.12l-1.71,1.71
		c-0.29,0.29-0.29,0.75,0,1.04c0.29,0.29,0.76,0.29,1.04,0l1.71-1.71C21.93,9.28,21.93,6.49,20.22,4.78z"/>
</g>
</svg>
