<?xml version="1.0" encoding="utf-8"?>
<!-- Generator: Adobe Illustrator 25.0.1, SVG Export Plug-In . SVG Version: 6.00 Build 0)  -->
<svg version="1.1" id="Layer_1" xmlns="http://www.w3.org/2000/svg" xmlns:xlink="http://www.w3.org/1999/xlink" x="0px" y="0px"
	 viewBox="0 0 25 25" style="enable-background:new 0 0 25 25;" xml:space="preserve">
<style type="text/css">
	.st0{fill-rule:evenodd;clip-rule:evenodd;fill:#3F3F3F;}
	.st1{fill:#FFFFFF;}
	.st2{fill-rule:evenodd;clip-rule:evenodd;fill:#FFFFFF;}
	.st3{fill-rule:evenodd;clip-rule:evenodd;fill:#8F8F8F;}
	.st4{fill:#3F3F3F;stroke:#3F3F3F;stroke-width:0.5;}
	.st5{fill:#8F8F8F;stroke:#8F8F8F;stroke-width:0.5;}
	.st6{fill:none;stroke:#3F3F3F;stroke-width:2;stroke-linecap:round;stroke-linejoin:round;}
	.st7{fill:none;stroke:#8F8F8F;stroke-width:2;stroke-linecap:round;stroke-linejoin:round;}
	.st8{fill:#C82300;stroke:#C82300;stroke-width:2;stroke-linecap:round;stroke-linejoin:round;}
	.st9{fill:#3F3F3F;}
	.st10{fill:none;stroke:#FFFFFF;stroke-width:2.5;stroke-linecap:round;stroke-linejoin:round;stroke-miterlimit:10;}
	.st11{fill:none;stroke:#3F3F3F;stroke-width:2.5;stroke-linecap:round;stroke-linejoin:round;stroke-miterlimit:10;}
</style>
<path class="st1" d="M12.5,0C5.6,0,0,5.6,0,12.5S5.6,25,12.5,25C19.4,25,25,19.4,25,12.5S19.4,0,12.5,0z M8.36,19.99H5.25v-10h3.11
	V19.99z M6.8,8.62c-1,0-1.8-0.81-1.8-1.8c0-0.99,0.8-1.8,1.8-1.8c0.99,0,1.8,0.81,1.8,1.8C8.6,7.81,7.8,8.62,6.8,8.62z M20,19.99
	h-3.11v-4.86c0-1.16-0.02-2.65-1.62-2.65c-1.62,0-1.86,1.26-1.86,2.57v4.95h-3.1v-10h2.98v1.37h0.04c0.41-0.79,1.43-1.62,2.94-1.62
	c3.15,0,3.73,2.07,3.73,4.76V19.99z"/>
</svg>
