<?xml version="1.0" encoding="utf-8"?>
<!-- Generator: Adobe Illustrator 25.0.1, SVG Export Plug-In . SVG Version: 6.00 Build 0)  -->
<svg version="1.1" id="Layer_1" xmlns="http://www.w3.org/2000/svg" xmlns:xlink="http://www.w3.org/1999/xlink" x="0px" y="0px"
	 viewBox="0 0 25 25" style="enable-background:new 0 0 25 25;" xml:space="preserve">
<style type="text/css">
	.st0{fill-rule:evenodd;clip-rule:evenodd;fill:#606060;}
	.st1{fill:#606060;}
	.st2{fill-rule:evenodd;clip-rule:evenodd;fill:#3F3F3F;}
	.st3{fill:#FFFFFF;}
	.st4{fill-rule:evenodd;clip-rule:evenodd;fill:#FFFFFF;}
	.st5{fill-rule:evenodd;clip-rule:evenodd;fill:#8F8F8F;}
	.st6{fill:#3F3F3F;stroke:#3F3F3F;stroke-width:0.5;}
	.st7{fill:#8F8F8F;stroke:#8F8F8F;stroke-width:0.5;}
	.st8{fill:none;stroke:#3F3F3F;stroke-width:2;stroke-linecap:round;stroke-linejoin:round;}
	.st9{fill:none;stroke:#8F8F8F;stroke-width:2;stroke-linecap:round;stroke-linejoin:round;}
	.st10{fill:#C82300;stroke:#C82300;stroke-width:2;stroke-linecap:round;stroke-linejoin:round;}
	.st11{fill:#3F3F3F;}
	.st12{fill:none;stroke:#FFFFFF;stroke-width:2.5;stroke-linecap:round;stroke-linejoin:round;stroke-miterlimit:10;}
	.st13{fill:none;stroke:#3F3F3F;stroke-width:2.5;stroke-linecap:round;stroke-linejoin:round;stroke-miterlimit:10;}
</style>
<circle class="st5" cx="12.5" cy="12.5" r="12.5"/>
<g>
	<path class="st3" d="M5.25,9.99h3.11v10H5.25V9.99z M6.8,5.01c0.99,0,1.8,0.81,1.8,1.8c0,1-0.81,1.8-1.8,1.8c-1,0-1.8-0.81-1.8-1.8
		C5,5.82,5.81,5.01,6.8,5.01"/>
	<path class="st3" d="M10.31,9.99h2.98v1.37h0.04c0.41-0.79,1.43-1.62,2.94-1.62c3.15,0,3.73,2.07,3.73,4.76v5.48h-3.11v-4.86
		c0-1.16-0.02-2.65-1.62-2.65c-1.62,0-1.86,1.26-1.86,2.57v4.95h-3.1V9.99z"/>
</g>
</svg>
