<?xml version="1.0" encoding="utf-8"?>
<!-- Generator: Adobe Illustrator 25.0.1, SVG Export Plug-In . SVG Version: 6.00 Build 0)  -->
<svg version="1.1" id="Layer_1" xmlns="http://www.w3.org/2000/svg" xmlns:xlink="http://www.w3.org/1999/xlink" x="0px" y="0px"
	 viewBox="0 0 25 25" style="enable-background:new 0 0 25 25;" xml:space="preserve">
<style type="text/css">
	.st0{fill-rule:evenodd;clip-rule:evenodd;fill:#606060;}
	.st1{fill:#606060;}
	.st2{fill-rule:evenodd;clip-rule:evenodd;fill:#3F3F3F;}
	.st3{fill:#FFFFFF;}
	.st4{fill-rule:evenodd;clip-rule:evenodd;fill:#FFFFFF;}
	.st5{fill-rule:evenodd;clip-rule:evenodd;fill:#8F8F8F;}
	.st6{fill:#3F3F3F;stroke:#3F3F3F;stroke-width:0.5;}
	.st7{fill:#8F8F8F;stroke:#8F8F8F;stroke-width:0.5;}
	.st8{fill:none;stroke:#3F3F3F;stroke-width:2;stroke-linecap:round;stroke-linejoin:round;}
	.st9{fill:none;stroke:#8F8F8F;stroke-width:2;stroke-linecap:round;stroke-linejoin:round;}
	.st10{fill:#C82300;stroke:#C82300;stroke-width:2;stroke-linecap:round;stroke-linejoin:round;}
	.st11{fill:#3F3F3F;}
	.st12{fill:none;stroke:#FFFFFF;stroke-width:2.5;stroke-linecap:round;stroke-linejoin:round;stroke-miterlimit:10;}
	.st13{fill:none;stroke:#3F3F3F;stroke-width:2.5;stroke-linecap:round;stroke-linejoin:round;stroke-miterlimit:10;}
</style>
<circle class="st2" cx="12.5" cy="12.5" r="12.5"/>
<path class="st3" d="M21,7.74c-0.63,0.28-1.3,0.46-2,0.55c0.72-0.43,1.27-1.12,1.53-1.93c-0.67,0.4-1.42,0.69-2.21,0.85
	c-0.64-0.68-1.54-1.1-2.55-1.1c-1.93,0-3.49,1.56-3.49,3.49c0,0.27,0.03,0.54,0.09,0.79c-2.9-0.15-5.47-1.53-7.19-3.64
	c-0.3,0.52-0.47,1.11-0.47,1.75c0,1.21,0.62,2.28,1.55,2.9c-0.57-0.02-1.11-0.18-1.58-0.44c0,0.01,0,0.03,0,0.04
	c0,1.69,1.2,3.1,2.8,3.42c-0.29,0.08-0.6,0.12-0.92,0.12c-0.22,0-0.44-0.02-0.66-0.06c0.44,1.39,1.73,2.39,3.26,2.42
	c-1.19,0.94-2.7,1.49-4.33,1.49c-0.28,0-0.56-0.02-0.83-0.05c1.54,0.99,3.38,1.57,5.35,1.57c6.42,0,9.92-5.31,9.92-9.92
	c0-0.15,0-0.3-0.01-0.45C19.94,9.05,20.53,8.44,21,7.74z"/>
</svg>
